<?xml version="1.0" standalone="no"?>
<!DOCTYPE svg PUBLIC "-//W3C//DTD SVG 20010904//EN"
 "http://www.w3.org/TR/2001/REC-SVG-20010904/DTD/svg10.dtd">
<svg version="1.0" xmlns="http://www.w3.org/2000/svg"
 width="260.000000pt" height="260.000000pt" viewBox="0 0 260.000000 260.000000"
 preserveAspectRatio="xMidYMid meet">
<metadata>
Created by potrace 1.11, written by Peter Selinger 2001-2013
</metadata>
<g transform="translate(0.000000,260.000000) scale(0.100000,-0.100000)"
fill="#000000" stroke="none">
<path d="M768 2114 c-94 -22 -169 -77 -207 -152 -27 -54 -32 -88 -36 -238 -4
-139 -14 -189 -47 -237 -37 -52 -132 -84 -245 -82 l-52 1 2 -105 2 -104 70 -3
c126 -4 202 -37 237 -105 26 -52 29 -68 33 -215 3 -146 9 -182 36 -236 35 -68
103 -121 194 -150 16 -6 105 -12 198 -14 l167 -3 0 94 c0 69 -3 95 -12 96 -7
0 -51 2 -98 4 -168 7 -199 42 -206 237 -5 139 -13 179 -51 235 -37 55 -80 91
-154 129 -69 36 -72 28 35 89 83 47 143 122 160 201 4 17 8 82 10 145 6 187
42 228 204 234 48 2 93 4 100 4 9 1 12 27 12 95 l0 94 -147 0 c-88 0 -171 -6
-205 -14z"/>
<path d="M1480 2034 c0 -52 3 -94 8 -94 4 -1 48 -2 97 -4 169 -7 204 -46 210
-233 3 -64 7 -130 11 -147 18 -83 91 -171 180 -216 27 -13 52 -23 57 -22 4 1
7 -5 7 -13 0 -8 -27 -28 -59 -45 -98 -49 -167 -130 -186 -218 -4 -18 -8 -83
-9 -146 -5 -188 -44 -229 -222 -230 l-95 -1 3 -95 3 -95 160 0 c125 1 171 5
211 18 109 37 179 106 205 203 6 20 12 100 14 177 3 145 16 207 54 251 38 43
142 75 234 71 56 -3 56 -3 56 120 l-1 90 -41 0 c-71 -1 -156 14 -196 35 -79
40 -103 104 -106 285 -1 71 -6 146 -10 165 -22 104 -101 184 -220 222 -16 6
-105 12 -197 13 l-168 4 0 -95z"/>
</g>
</svg>
